<svg width="420" height="112" viewBox="0 0 420 112" fill="none" xmlns="http://www.w3.org/2000/svg">
<path d="M153.546 95.556C148.548 95.556 144.102 94.4746 140.209 92.3118C136.316 90.101 133.264 87.025 131.054 83.084C128.891 79.0949 127.81 74.5291 127.81 69.3865C127.81 64.292 128.891 59.7982 131.054 55.9052C133.216 51.9642 136.244 48.9123 140.137 46.7495C144.03 44.5868 148.476 43.5054 153.474 43.5054C158.473 43.5054 162.918 44.5868 166.811 46.7495C170.704 48.9123 173.732 51.9642 175.895 55.9052C178.106 59.7982 179.211 64.292 179.211 69.3865C179.211 74.5291 178.106 79.0949 175.895 83.084C173.732 87.025 170.704 90.101 166.811 92.3118C162.918 94.4746 158.497 95.556 153.546 95.556ZM153.474 86.6886C158.136 86.6886 161.837 85.1266 164.577 82.0026C167.316 78.8786 168.686 74.6733 168.686 69.3865C168.686 64.1959 167.316 60.0626 164.577 56.9866C161.837 53.9107 158.136 52.3727 153.474 52.3727C148.86 52.3727 145.184 53.9107 142.444 56.9866C139.705 60.0626 138.335 64.1959 138.335 69.3865C138.335 74.6733 139.705 78.8786 142.444 82.0026C145.184 85.1266 148.86 86.6886 153.474 86.6886Z" fill="black"/>
<path d="M203.429 44.2984C209.869 44.2984 214.579 45.7883 217.559 48.7681C220.539 51.6999 222.028 55.8332 222.028 61.168C222.028 66.5989 220.418 70.8524 217.198 73.9283C213.978 77.0042 209.052 78.5422 202.419 78.5422H196.868V94.763H186.703V44.2984H203.429ZM201.122 70.9004C205.015 70.9004 207.73 70.0834 209.268 68.4493C210.854 66.8152 211.647 64.4362 211.647 61.3122C211.647 58.2362 210.95 55.9293 209.556 54.3913C208.211 52.8533 205.76 52.0844 202.203 52.0844H196.868V70.9004H201.122Z" fill="black"/>
<path d="M239.307 94.763H228.998V44.2984H239.307V94.763Z" fill="black"/>
<path d="M281.412 78.2538V44.2984H291V94.763H281.917L258.775 60.6633V94.763H249.187V44.2984H258.487L281.412 78.2538Z" fill="black"/>
<path d="M311.084 94.763H300.775V44.2984H311.084V94.763Z" fill="black"/>
<path d="M344.394 95.556C339.395 95.556 334.95 94.4746 331.057 92.3118C327.164 90.101 324.112 87.025 321.901 83.084C319.738 79.0949 318.657 74.5291 318.657 69.3865C318.657 64.292 319.738 59.7982 321.901 55.9052C324.064 51.9642 327.092 48.9123 330.985 46.7495C334.878 44.5868 339.323 43.5054 344.322 43.5054C349.32 43.5054 353.766 44.5868 357.659 46.7495C361.552 48.9123 364.58 51.9642 366.742 55.9052C368.953 59.7982 370.059 64.292 370.059 69.3865C370.059 74.5291 368.953 79.0949 366.742 83.084C364.58 87.025 361.552 90.101 357.659 92.3118C353.766 94.4746 349.344 95.556 344.394 95.556ZM344.322 86.6886C348.984 86.6886 352.684 85.1266 355.424 82.0026C358.163 78.8786 359.533 74.6733 359.533 69.3865C359.533 64.1959 358.163 60.0626 355.424 56.9866C352.684 53.9107 348.984 52.3727 344.322 52.3727C339.708 52.3727 336.031 53.9107 333.292 56.9866C330.552 60.0626 329.182 64.1959 329.182 69.3865C329.182 74.6733 330.552 78.8786 333.292 82.0026C336.031 85.1266 339.708 86.6886 344.322 86.6886Z" fill="black"/>
<path d="M409.776 78.2538V44.2984H419.364V94.763H410.28L387.139 60.6633V94.763H377.55V44.2984H386.85L409.776 78.2538Z" fill="black"/>
<path d="M144.427 10.9557V15.2813H137.65V36.188H132.532V15.2813H125.755V10.9557H144.427Z" fill="black"/>
<path d="M163.075 21.4091V10.9557H168.157V36.188H163.075V25.7347H152.766V36.188H147.647V10.9557H152.766V21.4091H163.075Z" fill="black"/>
<path d="M189.13 10.9557V15.1731H177.992V21.6254H188.049V25.3381H177.992V31.9706H189.13V36.188H173.054V10.9557H189.13Z" fill="black"/>
<path d="M55.9631 111.132C86.6394 111.132 111.507 86.2859 111.507 55.6369C111.507 24.9879 86.6394 0.141968 55.9631 0.141968C25.2869 0.141968 0.418945 24.9879 0.418945 55.6369C0.418945 86.2859 25.2869 111.132 55.9631 111.132Z" fill="#FB7832"/>
<path d="M87.7366 88.4898L79.5161 69.971C79.753 69.6444 79.9852 69.313 80.2078 68.9769C83.1217 64.5697 84.8132 59.2867 84.8132 53.6061C84.8132 38.1737 72.2906 25.6669 56.8492 25.6669C41.4079 25.6669 28.8853 38.1785 28.8853 53.6061C28.8853 69.0337 41.4079 81.5452 56.8492 81.5452C61.6252 81.5452 66.1216 80.3476 70.0542 78.2363L87.7366 88.4851V88.4898Z" fill="white"/>
</svg>
